<?xml version="1.0" encoding="UTF-8"?>
<!DOCTYPE svg PUBLIC "-//W3C//DTD SVG 1.1//EN" "http://www.w3.org/Graphics/SVG/1.1/DTD/svg11.dtd">
<svg xmlns="http://www.w3.org/2000/svg" version="1.1" width="2000px" height="1247px" style="shape-rendering:geometricPrecision; text-rendering:geometricPrecision; image-rendering:optimizeQuality; fill-rule:evenodd; clip-rule:evenodd" xmlns:xlink="http://www.w3.org/1999/xlink">
<g><path style="opacity:0.969" fill="#fefbfb" d="M 922.5,3.5 C 952.977,2.26711 982.977,5.43378 1012.5,13C 1066.06,28.8941 1102.56,63.0608 1122,115.5C 1133.37,147.202 1140.21,179.869 1142.5,213.5C 1097.83,212.56 1053.16,211.727 1008.5,211C 994.176,213.33 981.509,219.164 970.5,228.5C 925.976,222.475 885.81,206.142 850,179.5C 837.505,197.325 820.672,208.825 799.5,214C 792.833,214.667 786.167,214.667 779.5,214C 776.097,213.422 772.93,212.255 770,210.5C 768.649,219.55 767.149,228.55 765.5,237.5C 754.482,233.882 743.482,230.382 732.5,227C 736.724,180.598 749.557,136.765 771,95.5C 805.065,38.1993 855.565,7.53262 922.5,3.5 Z M 938.5,36.5 C 972.833,34.6678 1005.5,41.5012 1036.5,57C 1043.01,61.0862 1049.34,65.4196 1055.5,70C 1040.22,71.6018 1024.89,71.9352 1009.5,71C 989.975,69.9348 971.975,64.2681 955.5,54C 948.931,48.9329 943.265,43.0996 938.5,36.5 Z M 896.5,39.5 C 897.978,39.238 899.311,39.5713 900.5,40.5C 913.278,65.3973 932.611,83.2307 958.5,94C 986.635,104.181 1015.64,107.848 1045.5,105C 1057.16,103.583 1068.83,102.583 1080.5,102C 1083.5,107.667 1086.5,113.333 1089.5,119C 1039.77,136.866 990.103,136.866 940.5,119C 912.14,107.634 890.307,88.8008 875,62.5C 872.671,57.6809 870.838,52.6809 869.5,47.5C 878.632,44.9709 887.632,42.3043 896.5,39.5 Z M 841.5,64.5 C 857.93,104.429 886.263,132.596 926.5,149C 976.804,168.862 1028.14,171.862 1080.5,158C 1087.01,156.33 1093.34,154.164 1099.5,151.5C 1101.52,153.697 1102.69,156.364 1103,159.5C 1104.6,166.438 1105.77,173.438 1106.5,180.5C 1059.62,196.954 1011.62,201.454 962.5,194C 919.18,187.425 882.346,168.592 852,137.5C 838.068,121.635 828.901,103.302 824.5,82.5C 824.667,81.5 824.833,80.5 825,79.5C 830.695,74.6342 836.195,69.6342 841.5,64.5 Z M 799.5,114.5 C 805.237,130.253 813.904,144.253 825.5,156.5C 817.442,169.893 805.775,178.226 790.5,181.5C 784.276,181.282 779.943,178.282 777.5,172.5C 783.174,152.494 790.507,133.161 799.5,114.5 Z"/></g>
<g><path style="opacity:0.932" fill="#fefbfb" d="M 847.5,251.5 C 870.795,251.289 880.629,262.622 877,285.5C 876.484,288.034 875.317,290.2 873.5,292C 859.522,282.822 845.189,273.822 830.5,265C 834.574,258.419 840.241,253.919 847.5,251.5 Z"/></g>
<g><path style="opacity:0.993" fill="#d6bcb3" d="M 286.5,277.5 C 323.465,279.645 360.465,280.645 397.5,280.5C 454.836,279.7 512.169,278.7 569.5,277.5C 625.851,276.335 681.184,283.168 735.5,298C 831.171,326.338 894.671,387.838 926,482.5C 947.473,558.502 950.14,635.168 934,712.5C 903.317,833.85 828.151,913.017 708.5,950C 661.726,962.92 614.059,969.086 565.5,968.5C 490.521,965.803 415.521,964.97 340.5,966C 322.469,966.329 304.469,967.162 286.5,968.5C 286.5,961.5 286.5,954.5 286.5,947.5C 299.634,947.207 312.634,945.707 325.5,943C 343.254,939.579 354.087,929.079 358,911.5C 359.467,904.231 360.467,896.898 361,889.5C 361.667,711.5 361.667,533.5 361,355.5C 360.448,345.633 358.781,335.967 356,326.5C 352.564,316.731 346.064,309.898 336.5,306C 320.299,300.566 303.633,298.066 286.5,298.5C 286.5,291.5 286.5,284.5 286.5,277.5 Z M 550.5,296.5 C 596.232,293.484 640.232,300.651 682.5,318C 723.744,338.247 752.911,369.747 770,412.5C 787.867,458.831 798.2,506.831 801,556.5C 806.229,627.312 802.562,697.645 790,767.5C 782.652,810.935 765.652,849.935 739,884.5C 707.662,919.589 668.495,940.089 621.5,946C 595.242,949.719 568.909,950.386 542.5,948C 516.218,944.717 501.718,929.884 499,903.5C 498.093,897.527 497.427,891.527 497,885.5C 496.333,710.167 496.333,534.833 497,359.5C 497.261,343.122 501.261,327.788 509,313.5C 513.037,308.898 517.871,305.398 523.5,303C 532.38,299.73 541.38,297.563 550.5,296.5 Z"/></g>
<g><path style="opacity:0.993" fill="#d6bcb3" d="M 1016.5,277.5 C 1111.5,281.5 1206.5,281.5 1301.5,277.5C 1301.5,284.5 1301.5,291.5 1301.5,298.5C 1282.3,297.7 1263.96,301.2 1246.5,309C 1237.34,315.465 1231.84,324.299 1230,335.5C 1228.57,342.102 1227.57,348.768 1227,355.5C 1226.5,440.499 1226.33,525.499 1226.5,610.5C 1318.5,610.5 1410.5,610.5 1502.5,610.5C 1502.67,526.833 1502.5,443.166 1502,359.5C 1501.97,344.679 1498.64,330.679 1492,317.5C 1483.28,308.025 1472.45,302.525 1459.5,301C 1448.91,299.175 1438.24,298.342 1427.5,298.5C 1427.5,291.5 1427.5,284.5 1427.5,277.5C 1522.5,281.471 1617.5,281.471 1712.5,277.5C 1712.5,284.5 1712.5,291.5 1712.5,298.5C 1693.3,297.7 1674.96,301.2 1657.5,309C 1648.77,315.751 1643.27,324.584 1641,335.5C 1639.63,342.446 1638.63,349.446 1638,356.5C 1637.33,533.833 1637.33,711.167 1638,888.5C 1638.42,902.273 1641.75,915.273 1648,927.5C 1654.88,935.863 1663.72,941.03 1674.5,943C 1687.02,945.78 1699.69,947.28 1712.5,947.5C 1712.5,954.5 1712.5,961.5 1712.5,968.5C 1695.2,967.157 1677.87,966.323 1660.5,966C 1601.5,965.333 1542.5,965.333 1483.5,966C 1464.8,966.372 1446.14,967.205 1427.5,968.5C 1427.5,961.5 1427.5,954.5 1427.5,947.5C 1446.57,947.655 1464.91,944.155 1482.5,937C 1491.94,930.293 1497.44,921.126 1499,909.5C 1500.56,901.908 1501.56,894.241 1502,886.5C 1502.5,801.501 1502.67,716.501 1502.5,631.5C 1410.5,631.5 1318.5,631.5 1226.5,631.5C 1226.33,717.834 1226.5,804.167 1227,890.5C 1227.43,903.684 1230.77,916.017 1237,927.5C 1239.88,932.05 1243.72,935.55 1248.5,938C 1265.57,944.368 1283.24,947.535 1301.5,947.5C 1301.5,954.5 1301.5,961.5 1301.5,968.5C 1253.88,966.036 1206.21,965.036 1158.5,965.5C 1111.12,965.032 1063.79,966.032 1016.5,968.5C 1016.5,961.5 1016.5,954.5 1016.5,947.5C 1035.57,947.655 1053.91,944.155 1071.5,937C 1080.94,930.293 1086.44,921.126 1088,909.5C 1089.56,901.234 1090.56,892.901 1091,884.5C 1091.67,710.167 1091.67,535.833 1091,361.5C 1090.6,351.375 1089.27,341.375 1087,331.5C 1082.73,316.233 1072.9,306.733 1057.5,303C 1044.01,299.853 1030.34,298.353 1016.5,298.5C 1016.5,291.5 1016.5,284.5 1016.5,277.5 Z"/></g>
<g><path style="opacity:0.974" fill="#fefbfb" d="M 950.5,376.5 C 975.167,376.5 999.833,376.5 1024.5,376.5C 1024.5,387.5 1024.5,398.5 1024.5,409.5C 1005.83,409.667 987.164,409.5 968.5,409C 962.602,398.032 956.602,387.199 950.5,376.5 Z"/></g>
<g><path style="opacity:0.989" fill="#fffbfb" d="M 1293.5,376.5 C 1340.83,376.5 1388.17,376.5 1435.5,376.5C 1435.5,387.5 1435.5,398.5 1435.5,409.5C 1388.17,409.5 1340.83,409.5 1293.5,409.5C 1293.5,398.5 1293.5,387.5 1293.5,376.5 Z"/></g>
<g><path style="opacity:0.959" fill="#fefbfb" d="M 703.5,429.5 C 712.25,446.908 718.75,465.242 723,484.5C 727.632,505.628 730.966,526.961 733,548.5C 733.667,596.5 733.667,644.5 733,692.5C 730.287,729.784 722.953,766.117 711,801.5C 707.861,809.112 704.194,816.446 700,823.5C 699.667,743.5 699.333,663.5 699,583.5C 659.756,600.082 630.089,627.082 610,664.5C 602.371,681.056 597.371,698.39 595,716.5C 593.572,747.473 593.072,778.473 593.5,809.5C 631.415,809.08 652.415,827.746 656.5,865.5C 646.387,870.872 635.721,874.872 624.5,877.5C 622.313,871.411 620.813,865.078 620,858.5C 617.167,851.667 612.333,846.833 605.5,844C 591.504,843.5 577.504,843.333 563.5,843.5C 563.333,797.165 563.5,750.832 564,704.5C 575.039,644.168 606.539,598.001 658.5,566C 671.435,558.699 684.768,552.199 698.5,546.5C 699.333,514.505 699.833,482.505 700,450.5C 700.589,443.39 701.756,436.39 703.5,429.5 Z"/></g>
<g><path style="opacity:0.957" fill="#fefbfb" d="M 1293.5,698.5 C 1300.53,698.17 1307.53,698.503 1314.5,699.5C 1316.24,705.039 1317.41,710.705 1318,716.5C 1318.67,772.167 1318.67,827.833 1318,883.5C 1310.11,881.454 1302.11,880.121 1294,879.5C 1293.5,819.168 1293.33,758.834 1293.5,698.5 Z"/></g>
<g><path style="opacity:0.972" fill="#fefbfb" d="M 746.5,1007.5 C 755.173,1014.66 765.173,1018.83 776.5,1020C 842.833,1020.33 909.167,1020.67 975.5,1021C 985.189,1028.68 996.189,1033.34 1008.5,1035C 1033.15,1034.17 1057.81,1033.67 1082.5,1033.5C 1082.5,1071.17 1082.5,1108.83 1082.5,1146.5C 1149.83,1146.5 1217.17,1146.5 1284.5,1146.5C 1284.5,1109.17 1284.5,1071.83 1284.5,1034.5C 1305.82,1038.17 1325.15,1033.67 1342.5,1021C 1357.17,1020.33 1371.83,1020.33 1386.5,1021C 1399.07,1030.9 1413.41,1035.73 1429.5,1035.5C 1500.47,1032.67 1571.47,1031.83 1642.5,1033C 1630.61,1043.94 1616.61,1050.61 1600.5,1053C 1506.5,1053.5 1412.5,1053.67 1318.5,1053.5C 1318.5,1084.83 1318.5,1116.17 1318.5,1147.5C 1358.83,1147.33 1399.17,1147.5 1439.5,1148C 1467.26,1151.43 1482.59,1167.09 1485.5,1195C 1482.65,1219.52 1469.32,1235.19 1445.5,1242C 1097.17,1242.67 748.833,1242.67 400.5,1242C 389.545,1237.59 386.045,1229.75 390,1218.5C 392.264,1215.57 395.098,1213.4 398.5,1212C 395.389,1207.27 393.222,1202.1 392,1196.5C 382.228,1142.14 372.395,1087.81 362.5,1033.5C 368,1033.17 373.5,1032.83 379,1032.5C 384.911,1032.53 390.578,1033.19 396,1034.5C 402.503,1072.34 409.503,1110.01 417,1147.5C 423,1109.5 429,1071.5 435,1033.5C 445.451,1032.25 455.951,1032.25 466.5,1033.5C 457.941,1090.52 449.275,1147.52 440.5,1204.5C 466.167,1204.5 491.833,1204.5 517.5,1204.5C 526.223,1148.49 535.057,1092.49 544,1036.5C 556.42,1035.51 568.92,1035.18 581.5,1035.5C 571.991,1091.72 562.324,1147.89 552.5,1204C 591.833,1204.67 631.167,1204.67 670.5,1204C 675.623,1203.54 678.957,1200.87 680.5,1196C 670.552,1141.15 660.552,1086.31 650.5,1031.5C 661.621,1029.01 672.788,1026.67 684,1024.5C 693.986,1077.41 703.652,1130.41 713,1183.5C 714.192,1192.39 713.359,1201.06 710.5,1209.5C 768.167,1210.83 825.833,1210.83 883.5,1209.5C 876.847,1181.31 886.847,1161.47 913.5,1150C 917.773,1148.97 922.106,1148.3 926.5,1148C 967.499,1147.5 1008.5,1147.33 1049.5,1147.5C 1049.5,1116.17 1049.5,1084.83 1049.5,1053.5C 955.499,1053.67 861.499,1053.5 767.5,1053C 744.956,1049.66 727.123,1038.82 714,1020.5C 713.517,1019.55 713.351,1018.55 713.5,1017.5C 724.949,1015.35 735.949,1012.01 746.5,1007.5 Z M 923.5,1180.5 C 1096.5,1180.33 1269.5,1180.5 1442.5,1181C 1451.52,1186.4 1453.36,1193.56 1448,1202.5C 1445.53,1204.65 1442.7,1206.15 1439.5,1207C 1268.5,1207.67 1097.5,1207.67 926.5,1207C 915.414,1203.42 912.247,1196.26 917,1185.5C 918.965,1183.45 921.132,1181.78 923.5,1180.5 Z"/></g>
</svg>
