<?xml version="1.0" encoding="UTF-8"?>
<!DOCTYPE svg PUBLIC "-//W3C//DTD SVG 1.1//EN" "http://www.w3.org/Graphics/SVG/1.1/DTD/svg11.dtd">
<svg xmlns="http://www.w3.org/2000/svg" version="1.1" width="1000px" height="750px" style="shape-rendering:geometricPrecision; text-rendering:geometricPrecision; image-rendering:optimizeQuality; fill-rule:evenodd; clip-rule:evenodd" xmlns:xlink="http://www.w3.org/1999/xlink">
<g><path style="opacity:1" fill="#000000" d="M -0.5,-0.5 C 332.833,-0.5 666.167,-0.5 999.5,-0.5C 999.5,249.5 999.5,499.5 999.5,749.5C 666.167,749.5 332.833,749.5 -0.5,749.5C -0.5,499.5 -0.5,249.5 -0.5,-0.5 Z"/></g>
<g><path style="opacity:1" fill="#f9f6f6" d="M 459.5,116.5 C 522.139,111.807 555.139,140.807 558.5,203.5C 538.837,202.73 519.17,202.563 499.5,203C 494.618,205.256 489.785,207.422 485,209.5C 467.427,206.814 451.594,200.147 437.5,189.5C 434.015,192.484 430.682,195.651 427.5,199C 421.374,203.077 414.707,204.743 407.5,204C 406.234,203.691 405.067,203.191 404,202.5C 403.213,206.179 402.379,209.846 401.5,213.5C 397.535,212.234 393.535,211.067 389.5,210C 389.962,179.288 401.295,153.288 423.5,132C 434.439,124.193 446.439,119.026 459.5,116.5 Z"/></g>
<g><path style="opacity:1" fill="#060606" d="M 474.5,129.5 C 492.537,128.922 508.87,133.755 523.5,144C 512.029,145.124 500.695,144.457 489.5,142C 482.778,139.768 477.778,135.601 474.5,129.5 Z"/></g>
<g><path style="opacity:1" fill="#050505" d="M 452.5,131.5 C 454.527,131.338 456.527,131.505 458.5,132C 467.247,146.885 480.247,155.551 497.5,158C 509.249,158.858 520.915,158.358 532.5,156.5C 535.41,158.79 536.41,161.623 535.5,165C 515.465,170.933 495.465,170.933 475.5,165C 461.791,159.956 451.957,150.79 446,137.5C 445.51,136.207 445.343,134.873 445.5,133.5C 448.228,133.829 450.562,133.163 452.5,131.5 Z"/></g>
<g><path style="opacity:1" fill="#070707" d="M 432.5,141.5 C 443.676,163.13 461.343,176.63 485.5,182C 504.586,185.097 523.252,183.597 541.5,177.5C 543.124,181.701 544.124,186.034 544.5,190.5C 531.238,194.186 517.738,196.519 504,197.5C 480.882,198.239 460.382,191.405 442.5,177C 434.028,169.687 428.695,160.52 426.5,149.5C 428.106,146.557 430.106,143.891 432.5,141.5 Z"/></g>
<g><path style="opacity:1" fill="#0a0a0a" d="M 415.5,162.5 C 418.826,168.683 422.826,174.516 427.5,180C 423.369,186.816 417.369,190.15 409.5,190C 408.313,188.981 407.313,187.814 406.5,186.5C 409.111,178.332 412.111,170.332 415.5,162.5 Z"/></g>
<g><path style="opacity:1" fill="#f2efef" d="M 435.5,219.5 C 445.345,219.841 449.512,224.841 448,234.5C 447.692,235.308 447.192,235.975 446.5,236.5C 440.97,232.471 435.303,228.638 429.5,225C 431.342,222.926 433.342,221.093 435.5,219.5 Z"/></g>
<g><path style="opacity:1" fill="#514744" d="M 697.5,231.5 C 691.167,231.5 684.833,231.5 678.5,231.5C 678.5,233.833 678.5,236.167 678.5,238.5C 677.527,236.052 677.194,233.385 677.5,230.5C 684.354,230.176 691.021,230.509 697.5,231.5 Z"/></g>
<g><path style="opacity:1" fill="#d3bab1" d="M 202.5,230.5 C 249.16,231.325 295.827,231.492 342.5,231C 436.822,238.663 481.322,289.83 476,384.5C 467.599,462.569 424.432,506.735 346.5,517C 336.353,517.883 326.186,518.383 316,518.5C 278.148,517.256 240.315,517.256 202.5,518.5C 202.5,515.5 202.5,512.5 202.5,509.5C 210.875,509.789 218.875,508.289 226.5,505C 229.515,502.137 231.349,498.637 232,494.5C 233.149,453.865 233.649,413.198 233.5,372.5C 233.333,333.833 233.167,295.167 233,256.5C 231.413,246.582 225.58,241.082 215.5,240C 211.179,239.501 206.846,239.334 202.5,239.5C 202.5,236.5 202.5,233.5 202.5,230.5 Z"/></g>
<g><path style="opacity:1" fill="#746661" d="M 525.5,231.5 C 519.5,231.5 513.5,231.5 507.5,231.5C 507.5,233.833 507.5,236.167 507.5,238.5C 509.735,238.205 511.735,238.539 513.5,239.5C 511.167,239.5 508.833,239.5 506.5,239.5C 506.5,236.5 506.5,233.5 506.5,230.5C 513.022,230.177 519.355,230.51 525.5,231.5 Z"/></g>
<g><path style="opacity:1" fill="#d4bab1" d="M 709.5,378.5 C 671.004,377.501 632.337,377.168 593.5,377.5C 593.168,412.671 593.502,447.671 594.5,482.5C 593.564,491.101 595.897,498.601 601.5,505C 608.898,508.514 616.565,510.347 624.5,510.5C 624.5,512.833 624.5,515.167 624.5,517.5C 621.833,517.5 619.167,517.5 616.5,517.5C 582.833,517.5 549.167,517.5 515.5,517.5C 512.833,517.5 510.167,517.5 507.5,517.5C 507.5,515.167 507.5,512.833 507.5,510.5C 508.791,510.737 509.791,510.404 510.5,509.5C 529.26,510.906 538.427,502.239 538,483.5C 538.667,409.5 538.667,335.5 538,261.5C 536.959,246.294 528.792,238.961 513.5,239.5C 511.735,238.539 509.735,238.205 507.5,238.5C 507.5,236.167 507.5,233.833 507.5,231.5C 513.5,231.5 519.5,231.5 525.5,231.5C 553.833,231.5 582.167,231.5 610.5,231.5C 615.167,231.5 619.833,231.5 624.5,231.5C 624.5,233.833 624.5,236.167 624.5,238.5C 617.859,239.036 611.192,240.203 604.5,242C 598.996,244.84 595.829,249.34 595,255.5C 593.531,293.46 593.031,331.46 593.5,369.5C 632.167,369.5 670.833,369.5 709.5,369.5C 709.97,330.793 709.47,292.127 708,253.5C 705.514,244.823 699.681,240.323 690.5,240C 686.312,239.824 682.312,239.324 678.5,238.5C 678.5,236.167 678.5,233.833 678.5,231.5C 684.833,231.5 691.167,231.5 697.5,231.5C 730.509,231.723 763.509,231.39 796.5,230.5C 796.5,233.5 796.5,236.5 796.5,239.5C 786.539,237.881 777.706,240.214 770,246.5C 768.725,248.717 767.725,251.051 767,253.5C 765.848,293.463 765.348,333.463 765.5,373.5C 765.348,413.537 765.848,453.537 767,493.5C 768.462,502.836 773.962,508.003 783.5,509C 787.821,509.499 792.154,509.666 796.5,509.5C 796.5,512.5 796.5,515.5 796.5,518.5C 757.168,517.173 717.834,517.173 678.5,518.5C 678.5,515.5 678.5,512.5 678.5,509.5C 686.022,509.524 693.355,508.357 700.5,506C 704.567,503.252 707.067,499.419 708,494.5C 709.463,455.868 709.963,417.201 709.5,378.5 Z"/></g>
<g><path style="opacity:1" fill="#72645f" d="M 610.5,231.5 C 615.305,230.513 620.305,230.179 625.5,230.5C 625.806,233.385 625.473,236.052 624.5,238.5C 624.5,236.167 624.5,233.833 624.5,231.5C 619.833,231.5 615.167,231.5 610.5,231.5 Z"/></g>
<g><path style="opacity:1" fill="#010101" d="M 306.5,238.5 C 331.282,235.796 354.616,240.296 376.5,252C 393.991,264.867 405.158,282.034 410,303.5C 415.469,325.82 417.969,348.486 417.5,371.5C 417.938,393.365 416.105,415.032 412,436.5C 407.975,461.401 396.142,481.567 376.5,497C 352.575,510.314 327.241,513.98 300.5,508C 298.04,506.542 295.873,504.709 294,502.5C 291.907,497.372 290.574,492.038 290,486.5C 289.333,410.5 289.333,334.5 290,258.5C 291.044,247.971 296.544,241.305 306.5,238.5 Z"/></g>
<g><path style="opacity:1" fill="#bab7b7" d="M 509.5,272.5 C 499.652,272.173 489.986,272.506 480.5,273.5C 479.957,273.44 479.624,273.107 479.5,272.5C 489.659,271.177 499.659,271.177 509.5,272.5 Z"/></g>
<g><path style="opacity:1" fill="#b4b1b1" d="M 622.5,272.5 C 641.993,271.503 661.66,271.17 681.5,271.5C 681.819,276.363 681.486,281.03 680.5,285.5C 680.5,281.167 680.5,276.833 680.5,272.5C 661.167,272.5 641.833,272.5 622.5,272.5 Z"/></g>
<g><path style="opacity:1" fill="#fcf9f9" d="M 509.5,272.5 C 509.5,276.833 509.5,281.167 509.5,285.5C 501.804,285.831 494.138,285.497 486.5,284.5C 484.234,280.966 482.234,277.3 480.5,273.5C 489.986,272.506 499.652,272.173 509.5,272.5 Z"/></g>
<g><path style="opacity:1" fill="#fdfafa" d="M 622.5,272.5 C 641.833,272.5 661.167,272.5 680.5,272.5C 680.5,276.833 680.5,281.167 680.5,285.5C 661.167,285.5 641.833,285.5 622.5,285.5C 622.5,281.167 622.5,276.833 622.5,272.5 Z"/></g>
<g><path style="opacity:1" fill="#fbf8f8" d="M 376.5,454.5 C 375.833,422.331 375.167,389.997 374.5,357.5C 373.893,357.624 373.56,357.957 373.5,358.5C 348.308,369.209 333.808,388.209 330,415.5C 329.5,427.829 329.333,440.162 329.5,452.5C 344.235,451.512 352.901,458.179 355.5,472.5C 355.167,473.833 354.833,475.167 354.5,476.5C 350.693,478.326 346.693,479.326 342.5,479.5C 342.295,476.012 341.461,472.679 340,469.5C 338.512,467.84 336.679,466.84 334.5,466.5C 329.36,465.512 324.026,465.179 318.5,465.5C 318.5,446.167 318.5,426.833 318.5,407.5C 325.182,376.125 343.516,354.792 373.5,343.5C 375.484,328.871 376.15,313.871 375.5,298.5C 375.343,297.127 375.51,295.793 376,294.5C 382.482,308.423 386.482,323.09 388,338.5C 388.667,360.833 388.667,383.167 388,405.5C 386.767,422.509 382.934,438.843 376.5,454.5 Z"/></g>
<g><path style="opacity:1" fill="#bab7b7" d="M 375.5,298.5 C 376.15,313.871 375.484,328.871 373.5,343.5C 374.152,328.402 374.818,313.402 375.5,298.5 Z"/></g>
<g><path style="opacity:1" fill="#bdbaba" d="M 373.5,358.5 C 373.56,357.957 373.893,357.624 374.5,357.5C 375.167,389.997 375.833,422.331 376.5,454.5C 376.217,455.289 375.717,455.956 375,456.5C 374.832,423.664 374.332,390.997 373.5,358.5 Z"/></g>
<g><path style="opacity:1" fill="#37302e" d="M 709.5,378.5 C 671.167,378.5 632.833,378.5 594.5,378.5C 594.5,413.167 594.5,447.833 594.5,482.5C 593.502,447.671 593.168,412.671 593.5,377.5C 632.337,377.168 671.004,377.501 709.5,378.5 Z"/></g>
<g><path style="opacity:1" fill="#f7f4f4" d="M 622.5,406.5 C 625.5,406.5 628.5,406.5 631.5,406.5C 632.796,431.816 632.796,457.15 631.5,482.5C 628.579,481.593 625.579,481.26 622.5,481.5C 622.5,456.5 622.5,431.5 622.5,406.5 Z"/></g>
<g><path style="opacity:1" fill="#949191" d="M 318.5,407.5 C 318.5,426.833 318.5,446.167 318.5,465.5C 324.026,465.179 329.36,465.512 334.5,466.5C 328.833,466.5 323.167,466.5 317.5,466.5C 317.17,446.66 317.503,426.993 318.5,407.5 Z"/></g>
<g><path style="opacity:1" fill="#7c6d67" d="M 510.5,509.5 C 509.791,510.404 508.791,510.737 507.5,510.5C 507.5,512.833 507.5,515.167 507.5,517.5C 510.167,517.5 512.833,517.5 515.5,517.5C 512.713,518.477 509.713,518.81 506.5,518.5C 506.5,515.5 506.5,512.5 506.5,509.5C 507.833,509.5 509.167,509.5 510.5,509.5 Z"/></g>
<g><path style="opacity:1" fill="#7a6b66" d="M 624.5,510.5 C 625.473,512.948 625.806,515.615 625.5,518.5C 622.287,518.81 619.287,518.477 616.5,517.5C 619.167,517.5 621.833,517.5 624.5,517.5C 624.5,515.167 624.5,512.833 624.5,510.5 Z"/></g>
<g><path style="opacity:1" fill="#fbf8f8" d="M 513.5,546.5 C 520.167,546.5 526.833,546.5 533.5,546.5C 533.17,562.009 533.504,577.342 534.5,592.5C 562.5,592.5 590.5,592.5 618.5,592.5C 618.5,577.167 618.5,561.833 618.5,546.5C 627.199,547.491 635.199,545.658 642.5,541C 651.779,539.265 660.446,540.598 668.5,545C 671.93,545.956 675.43,546.456 679,546.5C 708.158,545.387 737.324,545.22 766.5,546C 761.551,550.141 755.884,552.641 749.5,553.5C 710.167,553.5 670.833,553.5 631.5,553.5C 631.171,567.01 631.504,580.344 632.5,593.5C 650.17,593.333 667.836,593.5 685.5,594C 697.564,597.296 702.73,605.129 701,617.5C 698.758,625.408 693.591,630.241 685.5,632C 539.833,632.667 394.167,632.667 248.5,632C 243.22,627.875 243.22,623.708 248.5,619.5C 243,595.002 238.333,570.335 234.5,545.5C 239.099,545.2 243.599,545.533 248,546.5C 250.388,561.552 253.055,576.552 256,591.5C 259.128,576.613 261.794,561.613 264,546.5C 268.066,545.536 272.233,545.203 276.5,545.5C 273.165,569.171 269.832,592.838 266.5,616.5C 277.187,616.832 287.854,616.499 298.5,615.5C 302.274,592.522 305.941,569.522 309.5,546.5C 314.5,546.5 319.5,546.5 324.5,546.5C 320.94,569.524 317.274,592.524 313.5,615.5C 312.957,615.56 312.624,615.893 312.5,616.5C 329.662,617.827 346.662,617.827 363.5,616.5C 365.95,616.126 366.95,614.626 366.5,612C 362.739,590.121 358.739,568.288 354.5,546.5C 354.608,545.558 354.941,544.725 355.5,544C 359.813,543.265 364.147,542.765 368.5,542.5C 372.138,564.19 375.971,585.856 380,607.5C 380.85,611.536 380.35,615.369 378.5,619C 402.84,619.833 427.174,619.666 451.5,618.5C 448.553,606.563 452.887,598.396 464.5,594C 483.164,593.5 501.83,593.333 520.5,593.5C 520.5,580.167 520.5,566.833 520.5,553.5C 479.832,553.667 439.165,553.5 398.5,553C 391.076,550.568 385.076,546.234 380.5,540C 384.628,538.047 388.962,536.547 393.5,535.5C 396.464,536.982 399.464,538.482 402.5,540C 431.5,540.333 460.5,540.667 489.5,541C 496.711,545.977 504.711,547.81 513.5,546.5 Z"/></g>
<g><path style="opacity:1" fill="#8b8888" d="M 513.5,546.5 C 520.313,545.509 527.313,545.175 534.5,545.5C 534.5,561.167 534.5,576.833 534.5,592.5C 533.504,577.342 533.17,562.009 533.5,546.5C 526.833,546.5 520.167,546.5 513.5,546.5 Z"/></g>
<g><path style="opacity:1" fill="#999797" d="M 749.5,553.5 C 710.67,554.499 671.67,554.832 632.5,554.5C 632.5,567.5 632.5,580.5 632.5,593.5C 631.504,580.344 631.171,567.01 631.5,553.5C 670.833,553.5 710.167,553.5 749.5,553.5 Z"/></g>
<g><path style="opacity:1" fill="#0a0909" d="M 467.5,606.5 C 539.834,606.333 612.167,606.5 684.5,607C 688.487,610.62 688.487,614.287 684.5,618C 612.167,618.667 539.833,618.667 467.5,618C 462.284,614.076 462.284,610.242 467.5,606.5 Z"/></g>
<g><path style="opacity:1" fill="#797777" d="M 313.5,615.5 C 329.992,616.497 346.658,616.83 363.5,616.5C 346.662,617.827 329.662,617.827 312.5,616.5C 312.624,615.893 312.957,615.56 313.5,615.5 Z"/></g>
</svg>
